<svg width="678" height="245" viewBox="0 0 678 245" fill="none" xmlns="http://www.w3.org/2000/svg">
  <defs>
    <linearGradient id="purpleWave" x1="34" y1="28" x2="605" y2="198" gradientUnits="userSpaceOnUse">
      <stop stop-color="#6C12D1"/>
      <stop offset="1" stop-color="#3D007A"/>
    </linearGradient>
    <linearGradient id="limeGlow" x1="84" y1="26" x2="562" y2="209" gradientUnits="userSpaceOnUse">
      <stop stop-color="#B3E23E"/>
      <stop offset="1" stop-color="#71BC11"/>
    </linearGradient>
    <filter id="softShadow" x="0" y="0" width="678" height="245" filterUnits="userSpaceOnUse" color-interpolation-filters="sRGB">
      <feDropShadow dx="0" dy="16" stdDeviation="16" flood-color="#2E014E" flood-opacity="0.22"/>
    </filter>
  </defs>
  <g filter="url(#softShadow)">
    <path d="M72 26C36 32 17 66 22 104C27 145 49 187 90 208C121 223 163 220 191 197C220 175 246 156 278 169C318 184 358 210 420 210C508 210 621 185 642 120C663 57 593 28 515 28C456 28 413 44 370 53C331 61 288 60 245 52C173 39 127 18 72 26Z" fill="url(#limeGlow)"/>
    <path d="M86 15C45 21 22 55 22 97C22 162 72 216 151 218C188 219 218 202 242 182C263 166 285 155 315 160C373 171 420 208 489 208C579 208 650 159 650 95C650 32 592 15 508 15C457 15 411 29 369 38C332 46 287 48 247 42C182 33 141 7 86 15Z" fill="url(#purpleWave)"/>
  </g>
  <circle cx="106" cy="102" r="53" fill="#101010"/>
  <path d="M546 54C532 55 520 67 520 83C520 99 531 110 546 110C562 110 573 99 573 83C573 67 560 54 546 54Z" fill="#130811"/>
  <path d="M117 188C131 191 140 201 141 214C131 218 121 223 111 229C100 219 96 205 101 191C106 188 111 187 117 188Z" fill="#71BC11"/>
  <path d="M455 59C445 62 438 71 438 81C438 92 446 100 457 102C468 104 480 100 486 91C493 82 493 70 486 62C479 55 467 53 455 59Z" fill="#B8E54B"/>
  <path d="M77 86C85 62 107 51 128 55C150 58 165 79 163 102C161 126 143 145 121 151C99 157 73 149 60 129C47 109 46 89 54 70C61 52 76 39 95 33C114 27 136 30 151 42" stroke="#F3F8E6" stroke-width="14" stroke-linecap="round"/>
  <path d="M198 159C197 97 243 49 303 49C339 49 369 64 393 93C398 100 400 108 395 115C390 123 381 124 373 118C355 106 331 100 308 100C268 100 236 128 236 164C236 201 264 225 304 225C336 225 359 215 377 193C383 185 391 181 400 185C410 190 414 200 410 209C384 258 324 279 263 261C216 247 183 209 198 159Z" fill="#090909"/>
  <path d="M334 123C334 103 350 87 373 87C397 87 415 104 415 127C415 150 397 168 373 168H342C335 168 330 164 330 157C330 150 335 145 342 145H372C383 145 391 137 391 127C391 116 383 110 373 110C363 110 355 116 355 125C355 132 350 137 343 137C338 137 334 132 334 123Z" fill="#090909"/>
  <path d="M442 134C442 88 478 52 527 52C576 52 611 87 611 133C611 144 603 152 592 152H483C490 173 508 184 532 184C548 184 562 180 573 171C580 165 588 165 594 170C601 176 601 186 595 193C579 211 556 220 528 220C478 220 442 184 442 134ZM485 120H568C563 99 548 88 527 88C506 88 491 99 485 120Z" fill="#090909"/>
  <path d="M390 147C390 102 425 67 472 67C499 67 521 79 534 98C540 106 538 117 529 123C521 129 511 127 505 120C497 110 486 104 473 104C451 104 433 123 433 146C433 169 451 186 473 186C486 186 496 181 505 171C511 164 521 162 529 168C538 174 540 185 534 193C521 212 500 223 472 223C425 223 390 190 390 147Z" fill="#090909"/>
  <path d="M181 161C181 105 139 62 83 62C70 62 60 72 60 85V164C60 176 70 186 83 186H133L156 209C165 217 179 209 176 196L170 175C177 171 181 166 181 161ZM138 157H98V94H137C154 94 165 106 165 125C165 145 155 157 138 157Z" fill="#090909"/>
</svg>
